<svg width="24" height="24" viewBox="0 0 24 24" fill="none" xmlns="http://www.w3.org/2000/svg">
<path d="M7 6.25C7 5.836 7.334 5.5 7.747 5.5H13.753C14.166 5.5 14.5 5.836 14.5 6.25C14.5 6.664 14.166 7 13.753 7H7.747C7.54861 6.99921 7.35861 6.91984 7.21861 6.77927C7.0786 6.63871 7 6.44839 7 6.25ZM7.747 14.5C7.54861 14.5008 7.35861 14.5802 7.21861 14.7207C7.0786 14.8613 7 15.0516 7 15.25C7 15.664 7.334 16 7.747 16H13.753C13.9514 15.9992 14.1414 15.9198 14.2814 15.7793C14.4214 15.6387 14.5 15.4484 14.5 15.25C14.5 15.0516 14.4214 14.8613 14.2814 14.7207C14.1414 14.5802 13.9514 14.5008 13.753 14.5H7.747ZM7 10.75C7 10.336 7.334 10 7.747 10H13.753C14.166 10 14.5 10.336 14.5 10.75C14.5 11.164 14.166 11.5 13.753 11.5H7.747C7.54861 11.4992 7.35861 11.4198 7.21861 11.2793C7.0786 11.1387 7 10.9484 7 10.75ZM4 4.25C4 3.65326 4.23705 3.08097 4.65901 2.65901C5.08097 2.23705 5.65326 2 6.25 2H15.25C15.8467 2 16.419 2.23705 16.841 2.65901C17.2629 3.08097 17.5 3.65326 17.5 4.25V17.25C17.5 17.8467 17.2629 18.419 16.841 18.841C16.419 19.2629 15.8467 19.5 15.25 19.5H6.25C5.65326 19.5 5.08097 19.2629 4.65901 18.841C4.23705 18.419 4 17.8467 4 17.25V4.25ZM5.504 4.173L5.5 4.25V17.25C5.5 17.664 5.836 18 6.25 18H15.25C15.4489 18 15.6397 17.921 15.7803 17.7803C15.921 17.6397 16 17.4489 16 17.25V4.25C16 4.05109 15.921 3.86032 15.7803 3.71967C15.6397 3.57902 15.4489 3.5 15.25 3.5H6.25C6.06443 3.50001 5.88544 3.56882 5.74765 3.69312C5.60986 3.81743 5.52305 3.98841 5.504 4.173ZM8.75 22C8.2846 22.0001 7.8306 21.856 7.45056 21.5873C7.07052 21.3187 6.78313 20.9388 6.628 20.5H15.25C16.112 20.5 16.9386 20.1576 17.5481 19.5481C18.1576 18.9386 18.5 18.112 18.5 17.25V8.937L19.34 9.777C19.763 10.2 20 10.772 20 11.369V17.25C20 17.8738 19.8771 18.4915 19.6384 19.0677C19.3997 19.644 19.0498 20.1677 18.6088 20.6088C18.1677 21.0498 17.644 21.3997 17.0677 21.6384C16.4915 21.8771 15.8738 22 15.25 22H8.75Z" fill="#484848"/>
</svg>
