<svg width="20" height="20" viewBox="0 0 20 20" fill="none" xmlns="http://www.w3.org/2000/svg">
<path d="M10.0007 11.6667V8.33333M17.5007 5.83333L15.834 4.16667M8.33398 2.5H11.6673M10.0007 18.3333C8.23254 18.3333 6.53685 17.631 5.28661 16.3807C4.03636 15.1305 3.33398 13.4348 3.33398 11.6667C3.33398 9.89856 4.03636 8.20286 5.28661 6.95262C6.53685 5.70238 8.23254 5 10.0007 5C11.7688 5 13.4645 5.70238 14.7147 6.95262C15.9649 8.20286 16.6673 9.89856 16.6673 11.6667C16.6673 13.4348 15.9649 15.1305 14.7147 16.3807C13.4645 17.631 11.7688 18.3333 10.0007 18.3333Z" stroke="#000066" stroke-width="1.5" stroke-linecap="round" stroke-linejoin="round"/>
</svg>
