<svg width="92" height="92" viewBox="0 0 92 92" fill="none" xmlns="http://www.w3.org/2000/svg">
<g id="vuesax/bold/book">
<g id="vuesax/bold/book_2">
<path id="Vector" d="M84.3333 18.5918V64.1701C84.3333 67.8884 81.305 71.3001 77.5867 71.7601L76.3983 71.9134C70.1117 72.7568 61.2567 75.3634 54.1267 78.3534C51.635 79.3884 48.875 77.5101 48.875 74.7884V21.4668C48.875 20.0484 49.68 18.7451 50.945 18.0551C57.96 14.2601 68.5783 10.8868 75.785 10.2734H76.015C80.615 10.2734 84.3333 13.9918 84.3333 18.5918Z" fill="#000066"/>
<path id="Vector_2" d="M41.0546 18.0551C34.0396 14.2601 23.4213 10.8868 16.2146 10.2734H15.9463C11.3463 10.2734 7.62793 13.9918 7.62793 18.5918V64.1701C7.62793 67.8884 10.6563 71.3001 14.3746 71.7601L15.5629 71.9134C21.8496 72.7568 30.7046 75.3634 37.8346 78.3534C40.3263 79.3884 43.0863 77.5101 43.0863 74.7884V21.4668C43.0863 20.0101 42.3196 18.7451 41.0546 18.0551ZM19.1663 29.6701H27.7913C29.3629 29.6701 30.6663 30.9734 30.6663 32.5451C30.6663 34.1551 29.3629 35.4201 27.7913 35.4201H19.1663C17.5946 35.4201 16.2913 34.1551 16.2913 32.5451C16.2913 30.9734 17.5946 29.6701 19.1663 29.6701ZM30.6663 46.9201H19.1663C17.5946 46.9201 16.2913 45.6551 16.2913 44.0451C16.2913 42.4734 17.5946 41.1701 19.1663 41.1701H30.6663C32.2379 41.1701 33.5413 42.4734 33.5413 44.0451C33.5413 45.6551 32.2379 46.9201 30.6663 46.9201Z" fill="#000066"/>
</g>
</g>
</svg>
