<svg width="92" height="92" viewBox="0 0 92 92" fill="none" xmlns="http://www.w3.org/2000/svg">
<g id="vuesax/bold/profile-2user">
<g id="vuesax/bold/profile-2user_2">
<g id="profile-2user">
<path id="Vector" d="M34.5003 7.66699C24.457 7.66699 16.292 15.832 16.292 25.8753C16.292 35.727 23.997 43.7003 34.0403 44.0453C34.347 44.007 34.6537 44.007 34.8837 44.0453C34.9603 44.0453 34.9987 44.0453 35.0753 44.0453C35.1137 44.0453 35.1137 44.0453 35.152 44.0453C44.9653 43.7003 52.6703 35.727 52.7087 25.8753C52.7087 15.832 44.5437 7.66699 34.5003 7.66699Z" fill="#000066"/>
<path id="Vector_2" d="M53.9737 54.242C43.2787 47.112 25.837 47.112 15.0653 54.242C10.197 57.5004 7.51367 61.9087 7.51367 66.6237C7.51367 71.3387 10.197 75.7087 15.027 78.9287C20.3937 82.532 27.447 84.3337 34.5003 84.3337C41.5537 84.3337 48.607 82.532 53.9737 78.9287C58.8037 75.6704 61.487 71.3004 61.487 66.547C61.4487 61.832 58.8037 57.462 53.9737 54.242Z" fill="#000066"/>
<path id="Vector_3" d="M76.6279 28.1364C77.2412 35.5731 71.9512 42.0897 64.6296 42.9714C64.5912 42.9714 64.5912 42.9714 64.5529 42.9714H64.4379C64.2079 42.9714 63.9779 42.9714 63.7862 43.0481C60.0679 43.2397 56.6562 42.0514 54.0879 39.8664C58.0362 36.3397 60.2979 31.0497 59.8379 25.2997C59.5696 22.1947 58.4962 19.3581 56.8862 16.9431C58.3429 16.2147 60.0296 15.7547 61.7546 15.6014C69.2679 14.9497 75.9762 20.5464 76.6279 28.1364Z" fill="#000066"/>
<path id="Vector_4" d="M84.2946 63.5949C83.9879 67.3132 81.6113 70.5332 77.6246 72.7182C73.7913 74.8266 68.9613 75.8232 64.1696 75.7082C66.9296 73.2166 68.5396 70.1116 68.8463 66.8149C69.2296 62.0616 66.9679 57.4999 62.4446 53.8582C59.8763 51.8266 56.8863 50.2166 53.6279 49.0282C62.0996 46.5749 72.7563 48.2232 79.3113 53.5132C82.8379 56.3499 84.6396 59.9149 84.2946 63.5949Z" fill="#000066"/>
</g>
</g>
</g>
</svg>
