<svg xmlns="http://www.w3.org/2000/svg" width="20" height="20" viewBox="0 0 20 20" fill="none">
<path d="M1.667 9.99984C1.667 14.6023 5.39783 18.3332 10.0003 18.3332C14.6028 18.3332 18.3337 14.6023 18.3337 9.99984C18.3337 5.39734 14.6028 1.6665 10.0003 1.6665V3.33317C11.568 3.33329 13.0855 3.88589 14.2862 4.89386C15.4869 5.90183 16.294 7.30071 16.5656 8.84469C16.8373 10.3887 16.5561 11.979 15.7715 13.3363C14.987 14.6935 13.7492 15.7308 12.2756 16.266C10.8021 16.8012 9.18713 16.8 7.71442 16.2625C6.24172 15.7251 5.00551 14.6859 4.22301 13.3275C3.4405 11.969 3.16176 10.3783 3.43575 8.83469C3.70974 7.29112 4.51893 5.89348 5.72116 4.88734L7.50033 6.6665V1.6665H2.50033L4.53866 3.70567C3.63632 4.48724 2.9128 5.45391 2.41729 6.53998C1.92178 7.62605 1.66588 8.80607 1.667 9.99984Z" fill="#FF0000"/>
</svg>