<svg width="92" height="92" viewBox="0 0 92 92" fill="none" xmlns="http://www.w3.org/2000/svg">
<g id="vuesax/bold/teacher">
<g id="vuesax/bold/teacher_2">
<path id="Vector" d="M64.5146 59.9539C67.083 58.2673 70.4563 60.1073 70.4563 63.1739V68.1189C70.4563 72.9873 66.6613 78.2006 62.0996 79.7339L49.8713 83.7973C47.7246 84.5256 44.2363 84.5256 42.128 83.7973L29.8996 79.7339C25.2996 78.2006 21.543 72.9873 21.543 68.1189V63.1356C21.543 60.1073 24.9163 58.2673 27.4463 59.9156L35.343 65.0523C38.3713 67.0839 42.2046 68.0806 46.038 68.0806C49.8713 68.0806 53.7046 67.0839 56.733 65.0523L64.5146 59.9539Z" fill="#000066"/>
<path id="Vector_2" d="M76.5898 24.7635L53.6282 9.69848C49.4882 6.97681 42.6648 6.97681 38.5248 9.69848L15.4482 24.7635C8.04983 29.5551 8.04983 40.4035 15.4482 45.2335L21.5815 49.2201L38.5248 60.2601C42.6648 62.9818 49.4882 62.9818 53.6282 60.2601L70.4565 49.2201L75.7082 45.7701V57.5001C75.7082 59.0718 77.0115 60.3751 78.5832 60.3751C80.1548 60.3751 81.4582 59.0718 81.4582 57.5001V38.6401C82.9915 33.6951 81.4198 27.9451 76.5898 24.7635Z" fill="#000066"/>
</g>
</g>
</svg>
