<svg width="20" height="20" viewBox="0 0 20 20" fill="none" xmlns="http://www.w3.org/2000/svg">
<rect width="20" height="20" fill="#1E1E1E"/>
<path d="M-947 19223C-993.465 19223 -1037.65 19213.8 -1077.9 19197.1L-1116.21 19289.4C-1064.02 19311.1 -1006.84 19323 -947 19323V19223ZM-1263.07 19011.9C-1279.76 18971.6 -1289 18927.5 -1289 18881H-1389C-1389 18940.8 -1377.08 18998 -1355.44 19050.2L-1263.07 19011.9ZM-1289 18881V18760.1H-1389V18881H-1289ZM-1289 18518.4V18276.6H-1389V18518.4H-1289ZM-1289 18034.9V17793.2H-1389V18034.9H-1289ZM-1289 17551.4V17309.7H-1389V17551.4H-1289ZM-1289 17067.9V16826.2H-1389V17067.9H-1289ZM-1289 16584.4V16342.7H-1389V16584.4H-1289ZM-1289 16100.9V15859.2H-1389V16100.9H-1289ZM-1289 15617.5V15375.7H-1389V15617.5H-1289ZM-1289 15134V14892.2H-1389V15134H-1289ZM-1289 14650.5V14408.7H-1389V14650.5H-1289ZM-1289 14167V13925.2H-1389V14167H-1289ZM-1289 13683.5V13441.8H-1389V13683.5H-1289ZM-1289 13200V12958.3H-1389V13200H-1289ZM-1289 12716.5V12474.8H-1389V12716.5H-1289ZM-1289 12233V11991.3H-1389V12233H-1289ZM-1289 11749.6V11507.8H-1389V11749.6H-1289ZM-1289 11266.1V11024.3H-1389V11266.1H-1289ZM-1289 10782.6V10540.8H-1389V10782.6H-1289ZM-1289 10299.1V10057.3H-1389V10299.1H-1289ZM-1289 9815.6V9573.85H-1389V9815.6H-1289ZM-1289 9332.11V9090.37H-1389V9332.11H-1289ZM-1289 8848.62V8606.88H-1389V8848.62H-1289ZM-1289 8365.13V8123.39H-1389V8365.13H-1289ZM-1289 7881.64V7639.9H-1389V7881.64H-1289ZM-1289 7398.16V7156.41H-1389V7398.16H-1289ZM-1289 6914.67V6672.92H-1389V6914.67H-1289ZM-1289 6431.18V6189.44H-1389V6431.18H-1289ZM-1289 5947.69V5705.95H-1389V5947.69H-1289ZM-1289 5464.2V5222.46H-1389V5464.2H-1289ZM-1289 4980.71V4738.97H-1389V4980.71H-1289ZM-1289 4497.23V4255.48H-1389V4497.23H-1289ZM-1289 4013.74V3772H-1389V4013.74H-1289ZM-1289 3530.25V3288.51H-1389V3530.25H-1289ZM-1289 3046.76V2805.02H-1389V3046.76H-1289ZM-1289 2563.27V2321.53H-1389V2563.27H-1289ZM-1289 2079.79V1838.04H-1389V2079.79H-1289ZM-1289 1596.3V1354.55H-1389V1596.3H-1289ZM-1289 1112.81V871.067H-1389V1112.81H-1289ZM-1289 629.322V387.578H-1389V629.322H-1289ZM-1289 145.833V-95.9105H-1389V145.833H-1289ZM-1289 -337.654V-579.399H-1389V-337.654H-1289ZM-1289 -821.143V-942H-1389V-821.143H-1289ZM-1289 -942C-1289 -988.465 -1279.76 -1032.65 -1263.07 -1072.9L-1355.44 -1111.21C-1377.08 -1059.02 -1389 -1001.84 -1389 -942H-1289ZM-1077.9 -1258.07C-1037.65 -1274.76 -993.464 -1284 -947 -1284V-1384C-1006.84 -1384 -1064.02 -1372.08 -1116.21 -1350.44L-1077.9 -1258.07ZM-947 -1284H-826.695V-1384H-947V-1284ZM-586.084 -1284H-345.474V-1384H-586.084V-1284ZM-104.864 -1284H135.747V-1384H-104.864V-1284ZM376.357 -1284H616.967V-1384H376.357V-1284ZM857.578 -1284H1098.19V-1384H857.578V-1284ZM1338.8 -1284H1579.41V-1384H1338.8V-1284ZM1820.02 -1284H2060.63V-1384H1820.02V-1284ZM2301.24 -1284H2541.85V-1384H2301.24V-1284ZM2782.46 -1284H3023.07V-1384H2782.46V-1284ZM3263.68 -1284H3504.29V-1384H3263.68V-1284ZM3744.9 -1284H3985.51V-1384H3744.9V-1284ZM4226.12 -1284H4466.73V-1384H4226.12V-1284ZM4707.34 -1284H4947.95V-1384H4707.34V-1284ZM5188.56 -1284H5429.17V-1384H5188.56V-1284ZM5669.79 -1284H5910.4V-1384H5669.79V-1284ZM6151.01 -1284H6391.62V-1384H6151.01V-1284ZM6632.23 -1284H6872.84V-1384H6632.23V-1284ZM7113.45 -1284H7354.06V-1384H7113.45V-1284ZM7594.67 -1284H7835.28V-1384H7594.67V-1284ZM8075.89 -1284H8316.5V-1384H8075.89V-1284ZM8557.11 -1284H8797.72V-1384H8557.11V-1284ZM9038.33 -1284H9278.94V-1384H9038.33V-1284ZM9519.55 -1284H9760.16V-1384H9519.55V-1284ZM10000.8 -1284H10241.4V-1384H10000.8V-1284ZM10482 -1284H10722.6V-1384H10482V-1284ZM10963.2 -1284H11203.8V-1384H10963.2V-1284ZM11444.4 -1284H11685V-1384H11444.4V-1284ZM11925.7 -1284H12166.3V-1384H11925.7V-1284ZM12406.9 -1284H12647.5V-1384H12406.9V-1284ZM12888.1 -1284H13128.7V-1384H12888.1V-1284ZM13369.3 -1284H13609.9V-1384H13369.3V-1284ZM13850.5 -1284H14091.1V-1384H13850.5V-1284ZM14331.8 -1284H14572.4V-1384H14331.8V-1284ZM14813 -1284H15053.6V-1384H14813V-1284ZM15294.2 -1284H15534.8V-1384H15294.2V-1284ZM15775.4 -1284H16016V-1384H15775.4V-1284ZM16256.6 -1284H16497.3V-1384H16256.6V-1284ZM16737.9 -1284H16978.5V-1384H16737.9V-1284ZM17219.1 -1284H17459.7V-1384H17219.1V-1284ZM17700.3 -1284H17940.9V-1384H17700.3V-1284ZM18181.5 -1284H18422.1V-1384H18181.5V-1284ZM18662.8 -1284H18903.4V-1384H18662.8V-1284ZM19144 -1284H19384.6V-1384H19144V-1284ZM19625.2 -1284H19865.8V-1384H19625.2V-1284ZM20106.4 -1284H20347V-1384H20106.4V-1284ZM20587.6 -1284H20828.3V-1384H20587.6V-1284ZM21068.9 -1284H21309.5V-1384H21068.9V-1284ZM21550.1 -1284H21790.7V-1384H21550.1V-1284ZM22031.3 -1284H22271.9V-1384H22031.3V-1284ZM22512.5 -1284H22753.2V-1384H22512.5V-1284ZM22993.8 -1284H23234.4V-1384H22993.8V-1284ZM23475 -1284H23715.6V-1384H23475V-1284ZM23956.2 -1284H24196.8V-1384H23956.2V-1284ZM24437.4 -1284H24678V-1384H24437.4V-1284ZM24918.7 -1284H25159.3V-1384H24918.7V-1284ZM25399.9 -1284H25640.5V-1384H25399.9V-1284ZM25881.1 -1284H26121.7V-1384H25881.1V-1284ZM26362.3 -1284H26602.9V-1384H26362.3V-1284ZM26843.5 -1284H27084.2V-1384H26843.5V-1284ZM27324.8 -1284H27565.4V-1384H27324.8V-1284ZM27806 -1284H28046.6V-1384H27806V-1284ZM28287.2 -1284H28527.8V-1384H28287.2V-1284ZM28768.4 -1284H29009V-1384H28768.4V-1284ZM29249.7 -1284H29490.3V-1384H29249.7V-1284ZM29730.9 -1284H29971.5V-1384H29730.9V-1284ZM30212.1 -1284H30452.7V-1384H30212.1V-1284ZM30693.3 -1284H30933.9V-1384H30693.3V-1284ZM31174.5 -1284H31415.2V-1384H31174.5V-1284ZM31655.8 -1284H31896.4V-1384H31655.8V-1284ZM32137 -1284H32377.6V-1384H32137V-1284ZM32618.2 -1284H32858.8V-1384H32618.2V-1284ZM33099.4 -1284H33340V-1384H33099.4V-1284ZM33580.6 -1284H33821.3V-1384H33580.6V-1284ZM34061.9 -1284H34302.5V-1384H34061.9V-1284ZM34543.1 -1284H34783.7V-1384H34543.1V-1284ZM35024.3 -1284H35264.9V-1384H35024.3V-1284ZM35505.5 -1284H35746.1V-1384H35505.5V-1284ZM35986.7 -1284H36107V-1384H35986.7V-1284ZM36107 -1284C36153.5 -1284 36197.6 -1274.76 36237.9 -1258.07L36276.2 -1350.44C36224 -1372.08 36166.8 -1384 36107 -1384V-1284ZM36423.1 -1072.9C36439.8 -1032.65 36449 -988.464 36449 -942H36549C36549 -1001.84 36537.1 -1059.02 36515.4 -1111.21L36423.1 -1072.9ZM36449 -942V-821.128H36549V-942H36449ZM36449 -579.384V-337.64H36549V-579.384H36449ZM36449 -95.8964V145.848H36549V-95.8964H36449ZM36449 387.591V629.335H36549V387.591H36449ZM36449 871.079V1112.82H36549V871.079H36449ZM36449 1354.57V1596.31H36549V1354.57H36449ZM36449 1838.05V2079.8H36549V1838.05H36449ZM36449 2321.54V2563.29H36549V2321.54H36449ZM36449 2805.03V3046.77H36549V2805.03H36449ZM36449 3288.52V3530.26H36549V3288.52H36449ZM36449 3772.01V4013.75H36549V3772.01H36449ZM36449 4255.5V4497.24H36549V4255.5H36449ZM36449 4738.98V4980.73H36549V4738.98H36449ZM36449 5222.47V5464.22H36549V5222.47H36449ZM36449 5705.96V5947.7H36549V5705.96H36449ZM36449 6189.45V6431.19H36549V6189.45H36449ZM36449 6672.94V6914.68H36549V6672.94H36449ZM36449 7156.42V7398.17H36549V7156.42H36449ZM36449 7639.91V7881.66H36549V7639.91H36449ZM36449 8123.4V8365.15H36549V8123.4H36449ZM36449 8606.89V8848.63H36549V8606.89H36449ZM36449 9090.38V9332.12H36549V9090.38H36449ZM36449 9573.87V9815.61H36549V9573.87H36449ZM36449 10057.4V10299.1H36549V10057.4H36449ZM36449 10540.8V10782.6H36549V10540.8H36449ZM36449 11024.3V11266.1H36549V11024.3H36449ZM36449 11507.8V11749.6H36549V11507.8H36449ZM36449 11991.3V12233.1H36549V11991.3H36449ZM36449 12474.8V12716.5H36549V12474.8H36449ZM36449 12958.3V13200H36549V12958.3H36449ZM36449 13441.8V13683.5H36549V13441.8H36449ZM36449 13925.3V14167H36549V13925.3H36449ZM36449 14408.7V14650.5H36549V14408.7H36449ZM36449 14892.2V15134H36549V14892.2H36449ZM36449 15375.7V15617.5H36549V15375.7H36449ZM36449 15859.2V16101H36549V15859.2H36449ZM36449 16342.7V16584.4H36549V16342.7H36449ZM36449 16826.2V17067.9H36549V16826.2H36449ZM36449 17309.7V17551.4H36549V17309.7H36449ZM36449 17793.2V18034.9H36549V17793.2H36449ZM36449 18276.7V18518.4H36549V18276.7H36449ZM36449 18760.1V18881H36549V18760.1H36449ZM36449 18881C36449 18927.5 36439.8 18971.6 36423.1 19011.9L36515.4 19050.2C36537.1 18998 36549 18940.8 36549 18881H36449ZM36237.9 19197.1C36197.6 19213.8 36153.5 19223 36107 19223V19323C36166.8 19323 36224 19311.1 36276.2 19289.4L36237.9 19197.1ZM36107 19223H35986.7V19323H36107V19223ZM35746.1 19223H35505.5V19323H35746.1V19223ZM35264.9 19223H35024.3V19323H35264.9V19223ZM34783.6 19223H34543V19323H34783.6V19223ZM34302.4 19223H34061.8V19323H34302.4V19223ZM33821.2 19223H33580.6V19323H33821.2V19223ZM33340 19223H33099.4V19323H33340V19223ZM32858.8 19223H32618.1V19323H32858.8V19223ZM32377.5 19223H32136.9V19323H32377.5V19223ZM31896.3 19223H31655.7V19323H31896.3V19223ZM31415.1 19223H31174.5V19323H31415.1V19223ZM30933.9 19223H30693.3V19323H30933.9V19223ZM30452.7 19223H30212V19323H30452.7V19223ZM29971.4 19223H29730.8V19323H29971.4V19223ZM29490.2 19223H29249.6V19323H29490.2V19223ZM29009 19223H28768.4V19323H29009V19223ZM28527.8 19223H28287.2V19323H28527.8V19223ZM28046.6 19223H27805.9V19323H28046.6V19223ZM27565.3 19223H27324.7V19323H27565.3V19223ZM27084.1 19223H26843.5V19323H27084.1V19223ZM26602.9 19223H26362.3V19323H26602.9V19223ZM26121.7 19223H25881.1V19323H26121.7V19223ZM25640.4 19223H25399.8V19323H25640.4V19223ZM25159.2 19223H24918.6V19323H25159.2V19223ZM24678 19223H24437.4V19323H24678V19223ZM24196.8 19223H23956.2V19323H24196.8V19223ZM23715.6 19223H23475V19323H23715.6V19223ZM23234.3 19223H22993.7V19323H23234.3V19223ZM22753.1 19223H22512.5V19323H22753.1V19223ZM22271.9 19223H22031.3V19323H22271.9V19223ZM21790.7 19223H21550.1V19323H21790.7V19223ZM21309.5 19223H21068.9V19323H21309.5V19223ZM20828.2 19223H20587.6V19323H20828.2V19223ZM20347 19223H20106.4V19323H20347V19223ZM19865.8 19223H19625.2V19323H19865.8V19223ZM19384.6 19223H19144V19323H19384.6V19223ZM18903.4 19223H18662.7V19323H18903.4V19223ZM18422.1 19223H18181.5V19323H18422.1V19223ZM17940.9 19223H17700.3V19323H17940.9V19223ZM17459.7 19223H17219.1V19323H17459.7V19223ZM16978.5 19223H16737.9V19323H16978.5V19223ZM16497.2 19223H16256.6V19323H16497.2V19223ZM16016 19223H15775.4V19323H16016V19223ZM15534.8 19223H15294.2V19323H15534.8V19223ZM15053.6 19223H14813V19323H15053.6V19223ZM14572.4 19223H14331.7V19323H14572.4V19223ZM14091.1 19223H13850.5V19323H14091.1V19223ZM13609.9 19223H13369.3V19323H13609.9V19223ZM13128.7 19223H12888.1V19323H13128.7V19223ZM12647.5 19223H12406.8V19323H12647.5V19223ZM12166.2 19223H11925.6V19323H12166.2V19223ZM11685 19223H11444.4V19323H11685V19223ZM11203.8 19223H10963.2V19323H11203.8V19223ZM10722.6 19223H10482V19323H10722.6V19223ZM10241.3 19223H10000.7V19323H10241.3V19223ZM9760.12 19223H9519.51V19323H9760.12V19223ZM9278.9 19223H9038.29V19323H9278.9V19223ZM8797.68 19223H8557.07V19323H8797.68V19223ZM8316.46 19223H8075.84V19323H8316.46V19223ZM7835.23 19223H7594.62V19323H7835.23V19223ZM7354.01 19223H7113.4V19323H7354.01V19223ZM6872.79 19223H6632.18V19323H6872.79V19223ZM6391.56 19223H6150.95V19323H6391.56V19223ZM5910.34 19223H5669.73V19323H5910.34V19223ZM5429.12 19223H5188.51V19323H5429.12V19223ZM4947.9 19223H4707.29V19323H4947.9V19223ZM4466.67 19223H4226.06V19323H4466.67V19223ZM3985.45 19223H3744.84V19323H3985.45V19223ZM3504.23 19223H3263.62V19323H3504.23V19223ZM3023.01 19223H2782.4V19323H3023.01V19223ZM2541.79 19223H2301.18V19323H2541.79V19223ZM2060.57 19223H1819.96V19323H2060.57V19223ZM1579.36 19223H1338.74V19323H1579.36V19223ZM1098.14 19223H857.526V19323H1098.14V19223ZM616.918 19223H376.307V19323H616.918V19223ZM135.699 19223H-104.911V19323H135.699V19223ZM-345.52 19223H-586.13V19323H-345.52V19223ZM-826.738 19223H-947V19323H-826.738V19223ZM-947 19173C-986.777 19173 -1024.46 19165.1 -1058.75 19150.9L-1135.36 19335.6C-1077.21 19359.7 -1013.53 19373 -947 19373V19173ZM-1216.88 18992.7C-1231.1 18958.5 -1239 18920.8 -1239 18881H-1439C-1439 18947.5 -1425.74 19011.2 -1401.63 19069.4L-1216.88 18992.7ZM-1239 18881V18760.1H-1439V18881H-1239ZM-1239 18518.4V18276.6H-1439V18518.4H-1239ZM-1239 18034.9V17793.2H-1439V18034.9H-1239ZM-1239 17551.4V17309.7H-1439V17551.4H-1239ZM-1239 17067.9V16826.2H-1439V17067.9H-1239ZM-1239 16584.4V16342.7H-1439V16584.4H-1239ZM-1239 16100.9V15859.2H-1439V16100.9H-1239ZM-1239 15617.5V15375.7H-1439V15617.5H-1239ZM-1239 15134V14892.2H-1439V15134H-1239ZM-1239 14650.5V14408.7H-1439V14650.5H-1239ZM-1239 14167V13925.2H-1439V14167H-1239ZM-1239 13683.5V13441.8H-1439V13683.5H-1239ZM-1239 13200V12958.3H-1439V13200H-1239ZM-1239 12716.5V12474.8H-1439V12716.5H-1239ZM-1239 12233V11991.3H-1439V12233H-1239ZM-1239 11749.6V11507.8H-1439V11749.6H-1239ZM-1239 11266.1V11024.3H-1439V11266.1H-1239ZM-1239 10782.6V10540.8H-1439V10782.6H-1239ZM-1239 10299.1V10057.3H-1439V10299.1H-1239ZM-1239 9815.6V9573.85H-1439V9815.6H-1239ZM-1239 9332.11V9090.37H-1439V9332.11H-1239ZM-1239 8848.62V8606.88H-1439V8848.62H-1239ZM-1239 8365.13V8123.39H-1439V8365.13H-1239ZM-1239 7881.64V7639.9H-1439V7881.64H-1239ZM-1239 7398.16V7156.41H-1439V7398.16H-1239ZM-1239 6914.67V6672.92H-1439V6914.67H-1239ZM-1239 6431.18V6189.44H-1439V6431.18H-1239ZM-1239 5947.69V5705.95H-1439V5947.69H-1239ZM-1239 5464.2V5222.46H-1439V5464.2H-1239ZM-1239 4980.71V4738.97H-1439V4980.71H-1239ZM-1239 4497.23V4255.48H-1439V4497.23H-1239ZM-1239 4013.74V3772H-1439V4013.74H-1239ZM-1239 3530.25V3288.51H-1439V3530.25H-1239ZM-1239 3046.76V2805.02H-1439V3046.76H-1239ZM-1239 2563.27V2321.53H-1439V2563.27H-1239ZM-1239 2079.79V1838.04H-1439V2079.79H-1239ZM-1239 1596.3V1354.55H-1439V1596.3H-1239ZM-1239 1112.81V871.067H-1439V1112.81H-1239ZM-1239 629.322V387.578H-1439V629.322H-1239ZM-1239 145.833V-95.9105H-1439V145.833H-1239ZM-1239 -337.654V-579.399H-1439V-337.654H-1239ZM-1239 -821.143V-942H-1439V-821.143H-1239ZM-1239 -942C-1239 -981.777 -1231.1 -1019.46 -1216.88 -1053.75L-1401.63 -1130.36C-1425.74 -1072.21 -1439 -1008.53 -1439 -942H-1239ZM-1058.75 -1211.88C-1024.46 -1226.1 -986.777 -1234 -947 -1234V-1434C-1013.53 -1434 -1077.21 -1420.74 -1135.36 -1396.63L-1058.75 -1211.88ZM-947 -1234H-826.695V-1434H-947V-1234ZM-586.084 -1234H-345.474V-1434H-586.084V-1234ZM-104.864 -1234H135.747V-1434H-104.864V-1234ZM376.357 -1234H616.967V-1434H376.357V-1234ZM857.578 -1234H1098.19V-1434H857.578V-1234ZM1338.8 -1234H1579.41V-1434H1338.8V-1234ZM1820.02 -1234H2060.63V-1434H1820.02V-1234ZM2301.24 -1234H2541.85V-1434H2301.24V-1234ZM2782.46 -1234H3023.07V-1434H2782.46V-1234ZM3263.68 -1234H3504.29V-1434H3263.68V-1234ZM3744.9 -1234H3985.51V-1434H3744.9V-1234ZM4226.12 -1234H4466.73V-1434H4226.12V-1234ZM4707.34 -1234H4947.95V-1434H4707.34V-1234ZM5188.56 -1234H5429.17V-1434H5188.56V-1234ZM5669.79 -1234H5910.4V-1434H5669.79V-1234ZM6151.01 -1234H6391.62V-1434H6151.01V-1234ZM6632.23 -1234H6872.84V-1434H6632.23V-1234ZM7113.45 -1234H7354.06V-1434H7113.45V-1234ZM7594.67 -1234H7835.28V-1434H7594.67V-1234ZM8075.89 -1234H8316.5V-1434H8075.89V-1234ZM8557.11 -1234H8797.72V-1434H8557.11V-1234ZM9038.33 -1234H9278.94V-1434H9038.33V-1234ZM9519.55 -1234H9760.16V-1434H9519.55V-1234ZM10000.8 -1234H10241.4V-1434H10000.8V-1234ZM10482 -1234H10722.6V-1434H10482V-1234ZM10963.2 -1234H11203.8V-1434H10963.2V-1234ZM11444.4 -1234H11685V-1434H11444.4V-1234ZM11925.7 -1234H12166.3V-1434H11925.7V-1234ZM12406.9 -1234H12647.5V-1434H12406.9V-1234ZM12888.1 -1234H13128.7V-1434H12888.1V-1234ZM13369.3 -1234H13609.9V-1434H13369.3V-1234ZM13850.5 -1234H14091.1V-1434H13850.5V-1234ZM14331.8 -1234H14572.4V-1434H14331.8V-1234ZM14813 -1234H15053.6V-1434H14813V-1234ZM15294.2 -1234H15534.8V-1434H15294.2V-1234ZM15775.4 -1234H16016V-1434H15775.4V-1234ZM16256.6 -1234H16497.3V-1434H16256.6V-1234ZM16737.9 -1234H16978.5V-1434H16737.9V-1234ZM17219.1 -1234H17459.7V-1434H17219.1V-1234ZM17700.3 -1234H17940.9V-1434H17700.3V-1234ZM18181.5 -1234H18422.1V-1434H18181.5V-1234ZM18662.8 -1234H18903.4V-1434H18662.8V-1234ZM19144 -1234H19384.6V-1434H19144V-1234ZM19625.2 -1234H19865.8V-1434H19625.2V-1234ZM20106.4 -1234H20347V-1434H20106.4V-1234ZM20587.6 -1234H20828.3V-1434H20587.6V-1234ZM21068.9 -1234H21309.5V-1434H21068.9V-1234ZM21550.1 -1234H21790.7V-1434H21550.1V-1234ZM22031.3 -1234H22271.9V-1434H22031.3V-1234ZM22512.5 -1234H22753.2V-1434H22512.5V-1234ZM22993.8 -1234H23234.4V-1434H22993.8V-1234ZM23475 -1234H23715.6V-1434H23475V-1234ZM23956.2 -1234H24196.8V-1434H23956.2V-1234ZM24437.4 -1234H24678V-1434H24437.4V-1234ZM24918.7 -1234H25159.3V-1434H24918.7V-1234ZM25399.9 -1234H25640.5V-1434H25399.9V-1234ZM25881.1 -1234H26121.7V-1434H25881.1V-1234ZM26362.3 -1234H26602.9V-1434H26362.3V-1234ZM26843.5 -1234H27084.2V-1434H26843.5V-1234ZM27324.8 -1234H27565.4V-1434H27324.8V-1234ZM27806 -1234H28046.6V-1434H27806V-1234ZM28287.2 -1234H28527.8V-1434H28287.2V-1234ZM28768.4 -1234H29009V-1434H28768.4V-1234ZM29249.7 -1234H29490.3V-1434H29249.7V-1234ZM29730.9 -1234H29971.5V-1434H29730.9V-1234ZM30212.1 -1234H30452.7V-1434H30212.1V-1234ZM30693.3 -1234H30933.9V-1434H30693.3V-1234ZM31174.5 -1234H31415.2V-1434H31174.5V-1234ZM31655.8 -1234H31896.4V-1434H31655.8V-1234ZM32137 -1234H32377.6V-1434H32137V-1234ZM32618.2 -1234H32858.8V-1434H32618.2V-1234ZM33099.4 -1234H33340V-1434H33099.4V-1234ZM33580.6 -1234H33821.3V-1434H33580.6V-1234ZM34061.9 -1234H34302.5V-1434H34061.9V-1234ZM34543.1 -1234H34783.7V-1434H34543.1V-1234ZM35024.3 -1234H35264.9V-1434H35024.3V-1234ZM35505.5 -1234H35746.1V-1434H35505.5V-1234ZM35986.7 -1234H36107V-1434H35986.7V-1234ZM36107 -1234C36146.8 -1234 36184.5 -1226.1 36218.7 -1211.88L36295.4 -1396.63C36237.2 -1420.74 36173.5 -1434 36107 -1434V-1234ZM36376.9 -1053.75C36391.1 -1019.46 36399 -981.777 36399 -942H36599C36599 -1008.53 36585.7 -1072.21 36561.6 -1130.36L36376.9 -1053.75ZM36399 -942V-821.128H36599V-942H36399ZM36399 -579.384V-337.64H36599V-579.384H36399ZM36399 -95.8964V145.848H36599V-95.8964H36399ZM36399 387.591V629.335H36599V387.591H36399ZM36399 871.079V1112.82H36599V871.079H36399ZM36399 1354.57V1596.31H36599V1354.57H36399ZM36399 1838.05V2079.8H36599V1838.05H36399ZM36399 2321.54V2563.29H36599V2321.54H36399ZM36399 2805.03V3046.77H36599V2805.03H36399ZM36399 3288.52V3530.26H36599V3288.52H36399ZM36399 3772.01V4013.75H36599V3772.01H36399ZM36399 4255.5V4497.24H36599V4255.5H36399ZM36399 4738.98V4980.73H36599V4738.98H36399ZM36399 5222.47V5464.22H36599V5222.47H36399ZM36399 5705.96V5947.7H36599V5705.96H36399ZM36399 6189.45V6431.19H36599V6189.45H36399ZM36399 6672.94V6914.68H36599V6672.94H36399ZM36399 7156.42V7398.17H36599V7156.42H36399ZM36399 7639.91V7881.66H36599V7639.91H36399ZM36399 8123.4V8365.15H36599V8123.4H36399ZM36399 8606.89V8848.63H36599V8606.89H36399ZM36399 9090.38V9332.12H36599V9090.38H36399ZM36399 9573.87V9815.61H36599V9573.87H36399ZM36399 10057.4V10299.1H36599V10057.4H36399ZM36399 10540.8V10782.6H36599V10540.8H36399ZM36399 11024.3V11266.1H36599V11024.3H36399ZM36399 11507.8V11749.6H36599V11507.8H36399ZM36399 11991.3V12233.1H36599V11991.3H36399ZM36399 12474.8V12716.5H36599V12474.8H36399ZM36399 12958.3V13200H36599V12958.3H36399ZM36399 13441.8V13683.5H36599V13441.8H36399ZM36399 13925.3V14167H36599V13925.3H36399ZM36399 14408.7V14650.5H36599V14408.7H36399ZM36399 14892.2V15134H36599V14892.2H36399ZM36399 15375.7V15617.5H36599V15375.7H36399ZM36399 15859.2V16101H36599V15859.2H36399ZM36399 16342.7V16584.4H36599V16342.7H36399ZM36399 16826.2V17067.9H36599V16826.2H36399ZM36399 17309.7V17551.4H36599V17309.7H36399ZM36399 17793.2V18034.9H36599V17793.2H36399ZM36399 18276.7V18518.4H36599V18276.7H36399ZM36399 18760.1V18881H36599V18760.1H36399ZM36399 18881C36399 18920.8 36391.1 18958.5 36376.9 18992.7L36561.6 19069.4C36585.7 19011.2 36599 18947.5 36599 18881H36399ZM36218.7 19150.9C36184.5 19165.1 36146.8 19173 36107 19173V19373C36173.5 19373 36237.2 19359.7 36295.4 19335.6L36218.7 19150.9ZM36107 19173H35986.7V19373H36107V19173ZM35746.1 19173H35505.5V19373H35746.1V19173ZM35264.9 19173H35024.3V19373H35264.9V19173ZM34783.6 19173H34543V19373H34783.6V19173ZM34302.4 19173H34061.8V19373H34302.4V19173ZM33821.2 19173H33580.6V19373H33821.2V19173ZM33340 19173H33099.4V19373H33340V19173ZM32858.8 19173H32618.1V19373H32858.8V19173ZM32377.5 19173H32136.9V19373H32377.5V19173ZM31896.3 19173H31655.7V19373H31896.3V19173ZM31415.1 19173H31174.5V19373H31415.1V19173ZM30933.9 19173H30693.3V19373H30933.9V19173ZM30452.7 19173H30212V19373H30452.7V19173ZM29971.4 19173H29730.8V19373H29971.4V19173ZM29490.2 19173H29249.6V19373H29490.2V19173ZM29009 19173H28768.4V19373H29009V19173ZM28527.8 19173H28287.2V19373H28527.8V19173ZM28046.6 19173H27805.9V19373H28046.6V19173ZM27565.3 19173H27324.7V19373H27565.3V19173ZM27084.1 19173H26843.5V19373H27084.1V19173ZM26602.9 19173H26362.3V19373H26602.9V19173ZM26121.7 19173H25881.1V19373H26121.7V19173ZM25640.4 19173H25399.8V19373H25640.4V19173ZM25159.2 19173H24918.6V19373H25159.2V19173ZM24678 19173H24437.4V19373H24678V19173ZM24196.8 19173H23956.2V19373H24196.8V19173ZM23715.6 19173H23475V19373H23715.6V19173ZM23234.3 19173H22993.7V19373H23234.3V19173ZM22753.1 19173H22512.5V19373H22753.1V19173ZM22271.9 19173H22031.3V19373H22271.9V19173ZM21790.7 19173H21550.1V19373H21790.7V19173ZM21309.5 19173H21068.9V19373H21309.5V19173ZM20828.2 19173H20587.6V19373H20828.2V19173ZM20347 19173H20106.4V19373H20347V19173ZM19865.8 19173H19625.2V19373H19865.8V19173ZM19384.6 19173H19144V19373H19384.6V19173ZM18903.4 19173H18662.7V19373H18903.4V19173ZM18422.1 19173H18181.5V19373H18422.1V19173ZM17940.9 19173H17700.3V19373H17940.9V19173ZM17459.7 19173H17219.1V19373H17459.7V19173ZM16978.5 19173H16737.9V19373H16978.5V19173ZM16497.2 19173H16256.6V19373H16497.2V19173ZM16016 19173H15775.4V19373H16016V19173ZM15534.8 19173H15294.2V19373H15534.8V19173ZM15053.6 19173H14813V19373H15053.6V19173ZM14572.4 19173H14331.7V19373H14572.4V19173ZM14091.1 19173H13850.5V19373H14091.1V19173ZM13609.9 19173H13369.3V19373H13609.9V19173ZM13128.7 19173H12888.1V19373H13128.7V19173ZM12647.5 19173H12406.8V19373H12647.5V19173ZM12166.2 19173H11925.6V19373H12166.2V19173ZM11685 19173H11444.4V19373H11685V19173ZM11203.8 19173H10963.2V19373H11203.8V19173ZM10722.6 19173H10482V19373H10722.6V19173ZM10241.3 19173H10000.7V19373H10241.3V19173ZM9760.12 19173H9519.51V19373H9760.12V19173ZM9278.9 19173H9038.29V19373H9278.9V19173ZM8797.68 19173H8557.07V19373H8797.68V19173ZM8316.46 19173H8075.84V19373H8316.46V19173ZM7835.23 19173H7594.62V19373H7835.23V19173ZM7354.01 19173H7113.4V19373H7354.01V19173ZM6872.79 19173H6632.18V19373H6872.79V19173ZM6391.56 19173H6150.95V19373H6391.56V19173ZM5910.34 19173H5669.73V19373H5910.34V19173ZM5429.12 19173H5188.51V19373H5429.12V19173ZM4947.9 19173H4707.29V19373H4947.9V19173ZM4466.67 19173H4226.06V19373H4466.67V19173ZM3985.45 19173H3744.84V19373H3985.45V19173ZM3504.23 19173H3263.62V19373H3504.23V19173ZM3023.01 19173H2782.4V19373H3023.01V19173ZM2541.79 19173H2301.18V19373H2541.79V19173ZM2060.57 19173H1819.96V19373H2060.57V19173ZM1579.36 19173H1338.74V19373H1579.36V19173ZM1098.14 19173H857.526V19373H1098.14V19173ZM616.918 19173H376.307V19373H616.918V19173ZM135.699 19173H-104.911V19373H135.699V19173ZM-345.52 19173H-586.13V19373H-345.52V19173ZM-826.738 19173H-947V19373H-826.738V19173Z" fill="white"/>
<g clip-path="url(#clip0_1037_2175)">
<rect width="1440" height="1024" transform="translate(-320 -457)" fill="#FBFBFB"/>
<g filter="url(#filter0_d_1037_2175)">
<rect x="-16" y="-285" width="357" height="321" rx="8" fill="white" shape-rendering="crispEdges"/>
<path d="M5.83398 5.20817C5.83398 4.86317 6.11232 4.58317 6.45648 4.58317H11.4615C11.8057 4.58317 12.084 4.86317 12.084 5.20817C12.084 5.55317 11.8057 5.83317 11.4615 5.83317H6.45648C6.29116 5.83251 6.13283 5.76637 6.01616 5.64923C5.89949 5.53209 5.83398 5.3735 5.83398 5.20817ZM6.45648 12.0832C6.29116 12.0838 6.13283 12.15 6.01616 12.2671C5.89949 12.3842 5.83398 12.5428 5.83398 12.7082C5.83398 13.0532 6.11232 13.3332 6.45648 13.3332H11.4615C11.6268 13.3325 11.7851 13.2664 11.9018 13.1492C12.0185 13.0321 12.084 12.8735 12.084 12.7082C12.084 12.5428 12.0185 12.3842 11.9018 12.2671C11.7851 12.15 11.6268 12.0838 11.4615 12.0832H6.45648ZM5.83398 8.95817C5.83398 8.61317 6.11232 8.33317 6.45648 8.33317H11.4615C11.8057 8.33317 12.084 8.61317 12.084 8.95817C12.084 9.30317 11.8057 9.58317 11.4615 9.58317H6.45648C6.29116 9.58251 6.13283 9.51637 6.01616 9.39923C5.89949 9.28209 5.83398 9.1235 5.83398 8.95817ZM3.33398 3.5415C3.33398 3.04422 3.53153 2.56731 3.88316 2.21568C4.23479 1.86405 4.7117 1.6665 5.20898 1.6665H12.709C13.2063 1.6665 13.6832 1.86405 14.0348 2.21568C14.3864 2.56731 14.584 3.04422 14.584 3.5415V14.3748C14.584 14.8721 14.3864 15.349 14.0348 15.7007C13.6832 16.0523 13.2063 16.2498 12.709 16.2498H5.20898C4.7117 16.2498 4.23479 16.0523 3.88316 15.7007C3.53153 15.349 3.33398 14.8721 3.33398 14.3748V3.5415ZM4.58732 3.47734L4.58398 3.5415V14.3748C4.58398 14.7198 4.86398 14.9998 5.20898 14.9998H12.709C12.8747 14.9998 13.0337 14.934 13.1509 14.8168C13.2681 14.6996 13.334 14.5406 13.334 14.3748V3.5415C13.334 3.37574 13.2681 3.21677 13.1509 3.09956C13.0337 2.98235 12.8747 2.9165 12.709 2.9165H5.20898C5.05434 2.91651 4.90519 2.97385 4.79036 3.07744C4.67554 3.18103 4.60319 3.32351 4.58732 3.47734ZM7.29232 18.3332C6.90448 18.3333 6.52615 18.2131 6.20945 17.9893C5.89275 17.7654 5.65326 17.4488 5.52398 17.0832H12.709C13.4273 17.0832 14.1162 16.7978 14.6241 16.2899C15.132 15.782 15.4173 15.0931 15.4173 14.3748V7.44734L16.1173 8.14734C16.4698 8.49984 16.6673 8.9765 16.6673 9.474V14.3748C16.6673 14.8947 16.5649 15.4094 16.366 15.8896C16.1671 16.3699 15.8755 16.8062 15.5079 17.1738C15.1404 17.5414 14.704 17.8329 14.2238 18.0319C13.7435 18.2308 13.2288 18.3332 12.709 18.3332H7.29232Z" fill="#000066"/>
</g>
</g>
<defs>
<filter id="filter0_d_1037_2175" x="-36" y="-301" width="397" height="361" filterUnits="userSpaceOnUse" color-interpolation-filters="sRGB">
<feFlood flood-opacity="0" result="BackgroundImageFix"/>
<feColorMatrix in="SourceAlpha" type="matrix" values="0 0 0 0 0 0 0 0 0 0 0 0 0 0 0 0 0 0 127 0" result="hardAlpha"/>
<feOffset dy="4"/>
<feGaussianBlur stdDeviation="10"/>
<feComposite in2="hardAlpha" operator="out"/>
<feColorMatrix type="matrix" values="0 0 0 0 0 0 0 0 0 0 0 0 0 0 0 0 0 0 0.05 0"/>
<feBlend mode="normal" in2="BackgroundImageFix" result="effect1_dropShadow_1037_2175"/>
<feBlend mode="normal" in="SourceGraphic" in2="effect1_dropShadow_1037_2175" result="shape"/>
</filter>
<clipPath id="clip0_1037_2175">
<rect width="1440" height="1024" fill="white" transform="translate(-320 -457)"/>
</clipPath>
</defs>
</svg>
